#!OML:ASF G:\JayActor3\Patient Classification 1\Patient 1\Session 5\male.ASF
:FULLY-SPECIFIED
:DEGREES
739
root -14.7914 17.9265 -4.92269 16.4464 87.7166 15.9855
lowerback 5.91791 -1.04073 -1.40712
upperback 0.921485 -1.48194 -1.18844
thorax -2.36344 -0.720442 -0.317107
lowerneck -6.15216 0.785534 2.32777
upperneck 12.0675 0.738224 1.36052
head 4.63305 0.588756 0.0839346
rclavicle 3.77691e-015 7.55382e-015
rhumerus -36.1337 -4.57494 -86.9001
rradius 27.272
rwrist 1.35066
rhand -20.2115 -10.6657
rfingers 7.12502
rthumb 6.1356 -40.5569
lclavicle 3.77691e-015 7.55382e-015
lhumerus -34.1494 10.7231 79.5535
lradius 19.9441
lwrist 13.538
lhand -18.3794 11.6344
lfingers 7.12502
lthumb 7.90412 41.4667
rfemur -27.4657 6.2574 17.4454
rtibia 29.0608
rfoot 3.17135 -10.4179
rtoes -7.50033
lfemur 13.658 9.38694 -20.9677
ltibia 7.39148
lfoot 11.1924 -3.472
ltoes -33.6742
740
root -14.9111 17.9144 -4.93908 17.3497 87.6138 17.0929
lowerback 6.02051 -1.01528 -1.3963
upperback 1.02184 -1.44647 -1.22214
thorax -2.31869 -0.70249 -0.359741
lowerneck -6.24202 0.800531 2.37173
upperneck 12.2462 0.759897 1.28258
head 4.70367 0.600159 0.0550851
rclavicle 1.31446e-014 1.19271e-015
rhumerus -36.0233 -4.60619 -86.9159
rradius 27.2212
rwrist 1.4261
rhand -20.3042 -10.7032
rfingers 7.12502
rthumb 6.04611 -40.5969
lclavicle 1.31446e-014 1.19271e-015
lhumerus -34.1771 10.6061 79.496
lradius 20.0329
lwrist 13.5923
lhand -18.3029 11.6936
lfingers 7.12502
lthumb 7.978 41.5231
rfemur -27.3147 5.78344 17.5257
rtibia 30.1833
rfoot 1.47479 -9.19455
rtoes -8.51388
lfemur 12.6395 9.75606 -21.0603
ltibia 9.04015
lfoot 10.1579 -3.54908
ltoes -33.445
741
root -15.028 17.9033 -4.95538 17.3961 87.5377 17.3746
lowerback 6.11845 -0.997541 -1.32903
upperback 1.14447 -1.41663 -1.24831
thorax -2.24949 -0.68774 -0.426204
lowerneck -6.3399 0.818955 2.40848
upperneck 12.4071 0.786053 1.20996
head 4.77025 0.613284 0.0292769
rclavicle 8.59744e-015 -2.78299e-015
rhumerus -35.8978 -4.66034 -86.9223
rradius 27.1668
rwrist 1.49153
rhand -20.3961 -10.7493
rfingers 7.12502
rthumb 5.95743 -40.6456
lclavicle 8.59744e-015 -2.78299e-015
lhumerus -34.1879 10.5411 79.4113
lradius 20.0892
lwrist 13.5662
lhand -18.2329 11.7497
lfingers 7.12502
lthumb 8.04558 41.5765
rfemur -27.1063 5.27658 17.6667
rtibia 31.4951
rfoot 0.02724 -8.22075
rtoes -9.29887
lfemur 11.7462 10.1155 -21.1248
ltibia 10.5232
lfoot 9.26023 -3.59102
ltoes -33.179
742
root -15.143 17.8938 -4.97101 16.4995 87.4748 16.726
lowerback 6.20309 -0.982962 -1.20989
upperback 1.27944 -1.3867 -1.26427
thorax -2.16104 -0.673184 -0.51163
lowerneck -6.43476 0.840809 2.4388
upperneck 12.5453 0.817119 1.14209
head 4.82939 0.628258 0.00618281
rclavicle -8.84592e-015 1.11319e-014
rhumerus -35.7616 -4.73218 -86.9206
rradius 27.1098
rwrist 1.5552
rhand -20.4773 -10.7933
rfingers 7.12502
rthumb 5.87903 -40.6917
lclavicle -8.84592e-015 1.11319e-014
lhumerus -34.1907 10.519 79.3046
lradius 20.121
lwrist 13.476
lhand -18.1805 11.7987
lfingers 7.12502
lthumb 8.09611 41.6236
rfemur -26.8759 4.79253 17.8573
rtibia 32.9886
rfoot -1.11551 -7.53474
rtoes -9.91685
lfemur 10.9005 10.1631 -21.2186
ltibia 11.9216
lfoot 8.5133 -3.28848
ltoes -32.8924
743
root -15.257 17.8859 -4.98533 15.4015 87.4259 15.8569
lowerback 6.26033 -0.97293 -1.0752
upperback 1.40864 -1.36137 -1.27621
thorax -2.0634 -0.660836 -0.601726
lowerneck -6.50996 0.864735 2.46544
upperneck 12.6543 0.851365 1.08124
head 4.87627 0.644443 -0.0141375
rclavicle -2.88238e-015 1.98785e-015
rhumerus -35.6301 -4.81905 -86.912
rradius 27.0563
rwrist 1.62233
rhand -20.5327 -10.8228
rfingers 7.12502
rthumb 5.82555 -40.7227
lclavicle -2.88238e-015 1.98785e-015
lhumerus -34.199 10.5265 79.1784
lradius 20.1364
lwrist 13.3466
lhand -18.1512 11.8331
lfingers 7.12502
lthumb 8.12445 41.6569
rfemur -26.6697 4.35959 18.0565
rtibia 34.6642
rfoot -1.9658 -7.15032
rtoes -10.4633
lfemur 10.0533 10.1839 -21.3071
ltibia 13.2669
lfoot 7.85741 -2.94557
ltoes -32.5942
